<?xml version="1.0" encoding="UTF-8" standalone="no"?>
<!-- Created with Inkscape (http://www.inkscape.org/) -->

<svg
   width="210mm"
   height="297mm"
   viewBox="0 0 210 297"
   version="1.1"
   id="svg5"
   sodipodi:docname="snowglobe.svg"
   inkscape:version="1.1.1 (c3084ef, 2021-09-22)"
   xmlns:inkscape="http://www.inkscape.org/namespaces/inkscape"
   xmlns:sodipodi="http://sodipodi.sourceforge.net/DTD/sodipodi-0.dtd"
   xmlns:xlink="http://www.w3.org/1999/xlink"
   xmlns="http://www.w3.org/2000/svg"
   xmlns:svg="http://www.w3.org/2000/svg">
  <sodipodi:namedview
     id="namedview7"
     pagecolor="#ffffff"
     bordercolor="#666666"
     borderopacity="1.0"
     inkscape:pageshadow="2"
     inkscape:pageopacity="0.0"
     inkscape:pagecheckerboard="true"
     inkscape:document-units="mm"
     showgrid="false"
     inkscape:zoom="0.79138866"
     inkscape:cx="274.83335"
     inkscape:cy="176.27243"
     inkscape:window-width="1010"
     inkscape:window-height="777"
     inkscape:window-x="0"
     inkscape:window-y="25"
     inkscape:window-maximized="0"
     inkscape:current-layer="layer1" />
  <defs
     id="defs2">
    <linearGradient
       inkscape:collect="always"
       id="linearGradient9125">
      <stop
         style="stop-color:#002255;stop-opacity:1;"
         offset="0"
         id="stop9121" />
      <stop
         style="stop-color:#002255;stop-opacity:0;"
         offset="1"
         id="stop9123" />
    </linearGradient>
    <linearGradient
       inkscape:collect="always"
       id="linearGradient5497-9">
      <stop
         style="stop-color:#ffffff;stop-opacity:1;"
         offset="0"
         id="stop5516" />
      <stop
         style="stop-color:#ffffff;stop-opacity:0;"
         offset="1"
         id="stop5518" />
    </linearGradient>
    <linearGradient
       inkscape:collect="always"
       xlink:href="#linearGradient5497-9"
       id="linearGradient5499"
       x1="159.23251"
       y1="640.10156"
       x2="720.56604"
       y2="640.10156"
       gradientUnits="userSpaceOnUse"
       gradientTransform="matrix(0.1460781,0,0,0.1460781,10.840626,7.3315303)" />
    <linearGradient
       inkscape:collect="always"
       xlink:href="#linearGradient5497-9"
       id="linearGradient5982"
       x1="24.83621"
       y1="95.492104"
       x2="181.2494"
       y2="95.492104"
       gradientUnits="userSpaceOnUse"
       gradientTransform="matrix(0.55210627,0,0,0.55210627,10.840626,7.3315303)" />
    <linearGradient
       inkscape:collect="always"
       xlink:href="#linearGradient9125"
       id="linearGradient9127"
       x1="106.84138"
       y1="214.45678"
       x2="629.94182"
       y2="214.45678"
       gradientUnits="userSpaceOnUse"
       gradientTransform="matrix(0.1460781,0,0,0.1460781,10.840626,7.3315303)" />
  </defs>
  <g
     inkscape:label="Layer 1"
     inkscape:groupmode="layer"
     id="layer1">
    <path
       id="path868-3-8"
       style="fill:#c87137;fill-opacity:1;stroke:#000000;stroke-width:0.52916667;stroke-linecap:round;stroke-linejoin:round;stroke-opacity:1;paint-order:markers fill stroke;stroke-miterlimit:4;stroke-dasharray:none"
       d="m 36.506438,96.277415 v 20.677175 a 89.716531,70.017076 0 0 0 32.519791,6.49192 89.716531,70.017076 0 0 0 2.727541,0.0933 89.716531,70.017076 0 0 0 2.801454,0.0562 89.716531,70.017076 0 0 0 1.175189,-0.0225 89.716531,70.017076 0 0 0 5.703039,-0.20514 89.716531,70.017076 0 0 0 1.463915,-0.0833 89.716531,70.017076 0 0 0 7.431723,-0.80256 89.716531,70.017076 0 0 0 0.417978,-0.0559 89.716531,70.017076 0 0 0 21.575332,-5.47251 V 96.277396 Z" />
    <path
       id="path868-3-8-9-4"
       style="fill:#ff9955;fill-opacity:1;stroke-width:0.698571;stroke-linecap:round;stroke-linejoin:round;paint-order:markers fill stroke"
       d="m 54.628683,109.90776 v 8.34956 a 89.716531,70.017076 0 0 0 14.661457,1.67048 89.716526,70.017076 0 0 0 2.727544,0.0933 89.716531,70.017076 0 0 0 2.801453,0.0562 89.716531,70.017076 0 0 0 1.17519,-0.0225 89.716526,70.017076 0 0 0 5.703039,-0.20514 89.716531,70.017076 0 0 0 1.463915,-0.0833 89.716526,70.017076 0 0 0 7.431717,-0.80258 89.716531,70.017076 0 0 0 0.417984,-0.0559 89.716526,70.017076 0 0 0 3.716719,-0.61684 v -8.34957 a 89.716526,70.017076 0 0 1 -3.716719,0.61684 89.716531,70.017076 0 0 1 -0.417984,0.0559 89.716526,70.017076 0 0 1 -7.431717,0.80256 89.716531,70.017076 0 0 1 -1.463915,0.0833 89.716526,70.017076 0 0 1 -5.703039,0.20515 89.716531,70.017076 0 0 1 -1.17519,0.0225 89.716531,70.017076 0 0 1 -2.801453,-0.0562 89.716526,70.017076 0 0 1 -2.727544,-0.0933 89.716531,70.017076 0 0 1 -14.661457,-1.67047 z" />
    <path
       id="path868-3"
       style="fill:#002255;stroke:#000000;stroke-width:0.52916667;stroke-linecap:round;stroke-linejoin:round;stroke-opacity:1;paint-order:markers fill stroke;stroke-miterlimit:4;stroke-dasharray:none"
       d="M 74.273339,16.71819 A 49.720676,49.720676 0 0 0 24.552854,66.438959 49.720676,49.720676 0 0 0 40.990066,103.34765 89.716531,70.017082 0 0 0 74.273339,108.3862 89.716531,70.017082 0 0 0 107.55689,103.34737 49.720676,49.720676 0 0 0 123.9941,66.438959 49.720676,49.720676 0 0 0 74.273339,16.71819 Z" />
    <path
       id="path868-3-0"
       style="opacity:0.45;mix-blend-mode:screen;fill:url(#linearGradient9127);fill-opacity:1;stroke:none;stroke-width:0.698571;stroke-linecap:round;stroke-linejoin:round;stroke-opacity:1;paint-order:markers fill stroke"
       d="M 74.273339,16.71819 A 49.720676,49.720676 0 0 0 26.797094,51.813745 49.720676,49.720676 0 0 0 86.644045,49.247393 49.720676,49.720676 0 0 0 102.51206,25.531095 49.720676,49.720676 0 0 0 74.273339,16.71819 Z" />
    <path
       id="path2250"
       style="fill:#ffffff;stroke:#ffffff;stroke-width:0.146078px;stroke-linecap:butt;stroke-linejoin:miter;stroke-opacity:1"
       d="m 78.190343,78.397105 c -2.569853,0.02633 -5.094683,0.489061 -7.171524,0.550643 -4.153684,0.123169 -6.673425,-0.526124 -10.299362,-0.005 -3.625934,0.521118 -7.490362,2.391969 -11.013493,3.837694 -9.051027,3.714107 -12.264072,4.162949 -15.23863,11.045727 -0.266802,0.586673 -0.41661,1.177534 -0.456494,1.754361 a 49.720676,49.720676 0 0 0 4.087051,4.91444 c 0.02576,0.007 0.05477,0.0109 0.08074,0.0176 a 49.720676,49.720676 0 0 1 -3.966078,-4.857376 c 0.03876,-0.01704 0.07941,-0.03256 0.123253,-0.04563 3.546709,-1.058164 7.758128,-1.643007 11.152153,0.642231 3.384066,2.278535 7.835749,1.829965 11.607787,0.908992 3.544138,-0.865327 7.409807,-2.826416 10.91192,-0.901864 4.617392,2.537447 10.075253,4.063317 15.393556,2.575484 3.94675,-1.104138 7.408321,-3.79634 11.589523,-3.640255 2.803847,0.104666 5.456855,1.035874 8.237455,1.742667 3.26348,0.829544 6.91634,-0.166048 9.33472,-2.471059 0.76617,-0.730245 1.91971,-1.177214 2.80403,-1.179465 0.22937,-5.29e-4 0.43914,0.03035 0.62082,0.09244 a 49.720676,49.720676 0 0 1 -0.89644,1.319554 c 0.0162,-0.0044 0.0344,-0.0122 0.0505,-0.01683 a 49.720676,49.720676 0 0 0 1.6157,-2.474484 c -0.70331,-2.100549 -2.69025,-4.876763 -4.26309,-6.973806 -2.17235,-2.896381 -6.26715,-2.17559 -10.76098,-2.89332 -4.493834,-0.717723 -11.587127,1.491475 -16.101418,-1.87562 -2.257133,-1.683548 -4.871845,-2.093402 -7.441705,-2.067057 z" />
    <path
       id="path1821"
       style="fill:#f9f9f9;stroke-width:0.251483;stroke-linecap:round;stroke-linejoin:round;paint-order:markers fill stroke"
       inkscape:transform-center-x="-0.0046895712"
       inkscape:transform-center-y="0.071162756"
       d="m 49.03458,29.494159 3.121901,-0.271303 -5.235662,-5.0918 5.583048,4.728395 0.06702,-3.386298 0.442315,3.368695 5.225263,-5.101929 -4.852334,5.44044 3.194401,0.128546 -3.176336,0.367784 5.235663,5.091801 -5.583046,-4.728395 0.03593,3.340938 -0.545271,-3.323338 -4.317615,3.904564 3.944685,-4.243074 z"
       sodipodi:nodetypes="ccccccccccccccccc" />
    <path
       id="path2128"
       style="fill:#f9f9f9;stroke-width:0.213449;stroke-linecap:round;stroke-linejoin:round;paint-order:markers fill stroke"
       inkscape:transform-center-x="-0.49089896"
       inkscape:transform-center-y="0.20149535"
       d="m 33.682082,81.175476 2.63751,0.764479 -2.457448,-5.442026 2.869029,5.277191 1.254707,-2.518844 -0.833846,2.663568 6.061771,-2.206204 -5.878161,2.575698 2.554815,1.086834 -2.716017,-0.709 2.457453,5.442034 -2.869033,-5.277187 -1.154822,2.516749 0.733961,-2.66148 -4.898544,1.58964 4.714935,-1.959132 z"
       sodipodi:nodetypes="ccccccccccccccccc" />
    <path
       id="path2130"
       style="fill:#f9f9f9;stroke-width:0.438235;stroke-linecap:round;stroke-linejoin:round;paint-order:markers fill stroke"
       inkscape:transform-center-x="-0.0080728089"
       inkscape:transform-center-y="0.12562157"
       d="m 79.663167,42.385971 5.370285,-0.478931 -9.006375,-8.988492 9.603949,8.346978 0.115295,-5.97779 0.760865,5.946718 8.988492,-9.006378 -8.346971,9.603945 5.494995,0.22692 -5.463929,0.649251 9.006383,8.988493 -9.603947,-8.34698 0.0618,5.897722 -0.937981,-5.866655 -7.427153,6.892682 6.785644,-7.490249 z"
       sodipodi:nodetypes="ccccccccccccccccc" />
    <path
       id="path2132"
       style="fill:#f9f9f9;stroke-width:0.327043;stroke-linecap:round;stroke-linejoin:round;paint-order:markers fill stroke"
       inkscape:transform-center-x="-0.73488378"
       inkscape:transform-center-y="0.30078757"
       d="m 99.298138,35.108026 3.718782,1.747986 -2.6537,-9.122417 3.28273,8.945012 2.26347,-3.7355 -1.67398,4.050443 9.22656,-2.261879 -9.02193,2.884678 3.54279,2.241893 -3.84287,-1.67606 2.65368,9.12242 -3.28273,-8.945012 -2.11728,3.752521 1.5278,-4.06745 -7.42287,1.521712 7.21824,-2.144513 z"
       sodipodi:nodetypes="ccccccccccccccccc" />
    <path
       id="path2134"
       style="fill:#f9f9f9;stroke-width:0.251483;stroke-linecap:round;stroke-linejoin:round;paint-order:markers fill stroke"
       inkscape:transform-center-x="-0.56355096"
       inkscape:transform-center-y="0.20345421"
       d="m 115.09151,67.882134 2.52412,1.857085 -0.57148,-7.280929 1.07231,7.237275 2.28576,-2.499354 -1.89155,2.822365 7.2929,-0.382915 -7.23624,0.883378 2.3146,2.205285 -2.62867,-1.820549 0.57147,7.280936 -1.07231,-7.237284 -2.17847,2.533266 1.78427,-2.856266 -5.8207,0.08269 5.76404,-0.583144 z"
       sodipodi:nodetypes="ccccccccccccccccc" />
    <path
       id="path1541"
       style="mix-blend-mode:soft-light;fill:url(#linearGradient5982);fill-opacity:1;stroke:none;stroke-width:0.698571;stroke-linecap:round;stroke-linejoin:round;stroke-opacity:1;paint-order:markers fill stroke"
       d="m 74.273339,16.71819 a 49.720676,49.720676 0 0 0 -49.720485,49.720764 49.720676,49.720676 0 0 0 16.437212,36.908696 89.716531,70.017082 0 0 0 0.141229,0.0408 A 49.720676,49.720676 0 0 1 27.474415,69.360502 49.720676,49.720676 0 0 1 77.194906,19.639729 49.720676,49.720676 0 0 1 110.90956,32.828416 49.720676,49.720676 0 0 0 74.273339,16.718167 Z" />
    <path
       id="path2211"
       style="fill:url(#linearGradient5499);fill-opacity:1;stroke:#ffffff;stroke-width:0.146078px;stroke-linecap:butt;stroke-linejoin:miter;stroke-opacity:1"
       d="m 115.36695,93.286524 c -0.88432,0.0021 -2.03786,0.449221 -2.80403,1.179465 -2.41838,2.305006 -6.07124,3.300599 -9.33472,2.471061 -2.7806,-0.706795 -5.433606,-1.638 -8.237453,-1.742672 -4.181202,-0.156082 -7.642773,2.536121 -11.589523,3.640253 -5.318303,1.487849 -10.776164,-0.03802 -15.393556,-2.575484 -3.502113,-1.924552 -7.367782,0.03653 -10.91192,0.90187 -3.772038,0.920967 -8.223721,1.369537 -11.607787,-0.908992 -3.394025,-2.285244 -7.605444,-1.700395 -11.152153,-0.642236 -0.04384,0.01307 -0.0845,0.02853 -0.123253,0.04563 a 49.720676,49.720676 0 0 0 6.777511,7.692221 89.716531,70.017076 0 0 0 33.283273,5.03854 89.716531,70.017076 0 0 0 33.283551,-5.03883 49.720676,49.720676 0 0 0 8.43088,-9.968411 c -0.18168,-0.06206 -0.39145,-0.09302 -0.62082,-0.09242 z" />
  </g>
</svg>
